<svg id="Capa_1" enable-background="new 0 0 512.009 512.009" height="512" viewBox="0 0 512.009 512.009" width="512" xmlns="http://www.w3.org/2000/svg"><g><g><path d="m235.94 218.26h-180.27v21.551c0 11.192 9.073 20.266 20.266 20.266h123.545c7.136 0 13.746-3.753 17.403-9.881z" fill="#365e7d"/><path d="m207.007 218.26-19.057 31.936c-3.657 6.128-10.267 9.881-17.403 9.881h28.933c7.136 0 13.746-3.753 17.403-9.881l19.057-31.936z" fill="#2b4d66"/><path d="m402.025 218.26h-93.252c0 23.095 18.722 41.817 41.817 41.817h9.618c23.095 0 41.817-18.722 41.817-41.817z" fill="#a4c7ff"/><path d="m373.091 218.26c0 19.769-13.723 36.323-32.159 40.683 3.101.734 6.332 1.133 9.657 1.133h9.618c23.095 0 41.817-18.722 41.817-41.817h-28.933z" fill="#91b6ff"/><path d="m397.011 28.127h-215.711c-13.051 0-25.664 4.708-35.523 13.26l-71.415 61.943c-11.872 10.297-18.692 25.24-18.692 40.956v73.975h353.41c14.51 0 26.272-11.762 26.272-26.272v-125.521c0-21.175-17.166-38.341-38.341-38.341zm-10.493 92.086c0 10.176-8.254 18.441-18.441 18.441h-119.667c-10.186 0-18.441-8.265-18.441-18.441v-15.394c0-.149 0-.309.01-.458.14-9.499 4.969-18.312 12.905-23.559l9.031-5.964c4.7-3.107 10.216-4.77 15.862-4.77h100.3c10.187 0 18.441 8.255 18.441 18.441z" fill="#d8ecfe"/><g fill="#b3dafe"><path d="m222.981 74.837-9.031 5.964c-7.936 5.247-12.765 14.06-12.905 23.559-.01.149-.01.309-.01.458v15.394c0 10.176 8.255 18.441 18.441 18.441h28.933c-10.186 0-18.441-8.265-18.441-18.441v-15.394c0-.149 0-.309.01-.458.14-9.499 4.969-18.312 12.905-23.559l9.031-5.964c4.7-3.107 10.216-4.77 15.862-4.77h-28.933c-5.646.001-11.162 1.664-15.862 4.77z"/><path d="m397.011 28.127h-28.933c21.175 0 38.341 17.166 38.341 38.341v125.52c0 14.509-11.762 26.272-26.272 26.272h28.933c14.51 0 26.272-11.762 26.272-26.272v-125.52c0-21.175-17.166-38.341-38.341-38.341z"/></g><path d="m308.243 70.068v20.794c0 7.455-6.044 13.499-13.499 13.499h-64.766c.14-9.499 4.969-18.312 12.905-23.559l9.031-5.965c4.7-3.107 10.216-4.77 15.862-4.77h40.467z" fill="#ed74b7"/><path d="m275.072 70.068v20.794c0 7.455-6.044 13.499-13.499 13.499h33.171c7.455 0 13.499-6.044 13.499-13.499v-20.794z" fill="#e759aa"/><path d="m107.623 260.077h50.081v20.997c0 7.364-5.969 13.333-13.333 13.333h-23.415c-7.364 0-13.333-5.969-13.333-13.333z" fill="#eaf6ff"/><path d="m132.664 260.077v20.997c0 7.089-5.537 12.87-12.52 13.292.27.016.538.041.813.041h23.415c7.364 0 13.333-5.969 13.333-13.333v-20.997z" fill="#d8ecfe"/></g><g><path d="m191.76 175.883h-24.965c-4.143 0-7.5 3.358-7.5 7.5s3.357 7.5 7.5 7.5h24.965c4.143 0 7.5-3.358 7.5-7.5s-3.357-7.5-7.5-7.5z"/><path d="m129.307 175.883h-15.823c-4.143 0-7.5 3.358-7.5 7.5s3.357 7.5 7.5 7.5h15.823c4.143 0 7.5-3.358 7.5-7.5s-3.357-7.5-7.5-7.5z"/><path d="m191.76 145.772h-78.276c-4.143 0-7.5 3.358-7.5 7.5s3.357 7.5 7.5 7.5h78.276c4.143 0 7.5-3.358 7.5-7.5s-3.357-7.5-7.5-7.5z"/><path d="m191.76 115.661h-78.276c-4.143 0-7.5 3.358-7.5 7.5s3.357 7.5 7.5 7.5h78.276c4.143 0 7.5-3.358 7.5-7.5s-3.357-7.5-7.5-7.5z"/><path d="m368.077 62.568h-23.889c-4.143 0-7.5 3.358-7.5 7.5s3.357 7.5 7.5 7.5h23.889c6.033 0 10.941 4.908 10.941 10.941v31.704c0 6.033-4.908 10.941-10.941 10.941h-119.667c-6.033 0-10.941-4.908-10.941-10.941v-8.352h57.276c11.579 0 20.999-9.42 20.999-20.999v-20.794c0-4.142-3.357-7.5-7.5-7.5h-40.467c-9.578-.666-21.035 6.139-29.03 11.978-9.46 6.252-16.529 17.94-16.278 30.273v15.394c0 14.304 11.638 25.941 25.941 25.941h119.667c14.304 0 25.941-11.637 25.941-25.941v-31.704c0-14.304-11.638-25.941-25.941-25.941zm-112.027 18.526c3.49-2.307 7.545-3.526 11.727-3.526h32.967v13.294c0 3.308-2.691 5.999-5.999 5.999h-55.734c1.493-3.398 3.695-6.962 8.006-9.801z"/><path d="m461.643 2.198c-2.93-2.93-7.679-2.93-10.606-.002l-27.169 27.157c-7.553-5.481-16.831-8.725-26.856-8.725h-215.712c-14.855 0-29.217 5.36-40.438 15.094l-71.414 61.942c-13.522 11.728-21.277 28.721-21.277 46.621v95.526c0 15.31 12.456 27.765 27.766 27.765h24.188v13.497c-.159 12.827 12.118 22.411 25.04 20.833v109.188h-10.025c-14.473 0-26.631 10.373-28.91 24.664l-6.756 42.355c-3.115 16.43 11.054 34.169 28.909 33.887h48.562c16.897.442 31.848-16.195 28.909-33.886l-6.756-42.356c-2.28-14.291-14.439-24.663-28.91-24.663h-10.024v-109.188c12.774 1.62 24.96-7.671 25.041-20.833v-13.497h34.276c9.725 0 18.86-5.188 23.843-13.538l16.875-28.279h61.644c3.623 23.647 24.103 41.817 48.747 41.817h9.618c24.644 0 45.125-18.17 48.748-41.817h.125c18.622 0 33.771-15.15 33.771-33.771v-125.521c0-9.847-3.132-18.972-8.437-26.451l27.225-27.212c2.93-2.929 2.931-7.678.003-10.607zm-364.12 489.792c-2.716-3.184-3.896-7.38-3.236-11.514l6.756-42.355c1.111-6.969 7.04-12.026 14.098-12.026h10.023v70.905h-16.78c-4.186 0-8.144-1.826-10.861-5.01zm52.665-65.896c7.057 0 12.985 5.058 14.098 12.026l6.756 42.355c1.226 7.262-4.586 16.506-14.097 16.524h-16.781v-70.906h10.024zm.017-145.02c0 3.216-2.616 5.833-5.833 5.833h-23.415c-3.217 0-5.833-2.617-5.833-5.833v-13.497h35.081zm60.238-34.721c-2.291 3.839-6.491 6.224-10.962 6.224h-123.545c-7.039 0-12.766-5.727-12.766-12.765v-14.052h159.561zm149.765 6.224h-9.618c-16.347 0-30.061-11.49-33.491-26.817h76.601c-3.431 15.327-17.146 26.817-33.492 26.817zm67.644-60.589c0 10.351-8.421 18.771-18.771 18.771h-345.911v-66.475c0-13.549 5.87-26.412 16.105-35.29l71.414-61.942c8.495-7.368 19.365-11.425 30.61-11.425h215.711c17.006 0 30.841 13.835 30.841 30.841v125.52z"/></g></g></svg>